{"glyphs":{":":{"x_min":0,"x_max":333,"ha":333,"o":"m 61 519 l 273 519 l 273 319 l 61 319 z m 61 199 l 273 199 l 273 0 l 61 0 z"},"$":{"x_min":0,"x_max":667,"ha":667,"o":"m 610 547 l 429 519 q 415 553 404 567 q 393 580 368 594 l 368 453 q 516 413 566 369 q 632 310 632 219 q 632 166 608 122 q 584 77 548 47 q 511 18 469 4 q 428 -9 368 -12 l 368 -104 l 296 -104 l 296 -12 q 225 -5 180 11 q 135 28 103 58 q 70 88 53 122 q 35 157 26 206 l 224 229 q 232 180 247 159 q 262 137 296 121 l 296 293 q 198 320 156 340 q 115 360 85 405 q 55 449 55 512 q 55 599 115 657 q 176 716 296 722 l 296 771 l 368 771 l 368 722 q 477 715 535 670 q 593 625 610 547 z m 296 596 q 265 586 253 571 q 241 556 241 535 q 241 514 253 498 q 266 482 296 471 z m 368 116 q 409 125 428 146 q 448 167 448 194 q 448 217 431 236 q 415 255 368 272 z"},"?":{"x_min":0,"x_max":611,"ha":611,"o":"m 383 225 l 198 225 l 198 243 q 198 291 208 320 q 219 350 240 374 q 262 398 336 460 q 375 492 375 519 q 375 546 360 561 q 344 576 312 576 q 277 576 254 553 q 231 530 225 473 l 36 496 q 45 601 112 664 q 178 728 314 728 q 421 728 486 684 q 575 624 575 523 q 575 482 552 443 q 529 405 458 349 q 409 310 396 286 q 383 263 383 225 z m 191 175 l 390 175 l 390 0 l 191 0 z"},"<":{"x_min":0,"x_max":660,"ha":660,"o":"m 607 55 l 52 286 l 52 430 l 607 661 l 607 487 l 270 357 l 607 227 z"},"'":{"x_min":0,"x_max":278,"ha":278,"o":"m 42 716 l 240 716 l 240 598 l 208 453 l 74 453 l 42 598 z"},"=":{"x_min":0,"x_max":660,"ha":660,"o":"m 62 557 l 595 557 l 595 398 l 62 398 z m 62 317 l 595 317 l 595 159 l 62 159 z"},"a":{"x_min":0,"x_max":667,"ha":667,"o":"m 241 351 l 51 371 q 62 420 82 449 q 103 478 141 499 q 168 514 216 522 q 264 530 319 530 q 409 530 463 520 q 517 510 553 479 q 579 457 593 416 q 608 376 608 339 l 608 110 q 608 74 613 53 q 617 32 633 0 l 446 0 q 435 20 432 31 q 428 41 425 63 q 386 26 347 10 q 294 -12 225 -12 q 132 -12 84 31 q 36 74 36 137 q 36 196 70 234 q 105 272 198 291 q 310 313 343 323 q 376 332 414 346 q 414 383 398 397 q 383 412 345 412 q 296 412 272 396 q 253 384 241 351 z m 414 246 q 373 231 328 220 q 268 204 251 188 q 235 172 235 152 q 235 128 251 114 q 268 99 299 99 q 333 99 361 115 q 390 131 402 154 q 414 177 414 214 z"},"L":{"x_min":0,"x_max":667,"ha":667,"o":"m 73 716 l 294 716 l 294 176 l 640 176 l 640 0 l 73 0 z"},"3":{"x_min":0,"x_max":667,"ha":667,"o":"m 234 509 l 46 542 q 69 632 136 680 q 203 728 325 728 q 465 728 527 676 q 590 624 590 544 q 590 498 564 460 q 539 423 488 395 q 529 384 551 371 q 587 349 607 313 q 626 277 626 227 q 626 165 594 107 q 561 50 500 19 q 438 -12 338 -12 q 240 -12 184 11 q 127 34 91 78 q 55 122 35 189 l 234 215 q 246 155 270 132 q 295 109 333 109 q 373 109 400 138 q 426 167 426 216 q 426 266 401 293 q 375 321 331 321 q 308 321 267 309 l 277 451 q 293 449 303 449 q 342 449 368 474 q 394 499 394 533 q 394 565 375 585 q 355 604 321 604 q 286 604 264 583 q 242 562 234 509 z"},";":{"x_min":0,"x_max":333,"ha":333,"o":"m 61 519 l 273 519 l 273 319 l 61 319 z m 61 197 l 273 197 l 273 34 q 273 -57 235 -109 q 198 -161 107 -201 l 61 -114 q 117 -88 138 -62 q 160 -36 162 0 l 61 0 z"},"J":{"x_min":0,"x_max":667,"ha":667,"o":"m 371 716 l 593 716 l 593 327 q 593 204 571 140 q 549 76 484 32 q 418 -13 315 -13 q 207 -13 147 17 q 88 46 55 102 q 23 159 17 242 l 229 271 q 229 223 237 200 q 245 177 263 163 q 276 154 299 154 q 336 154 354 181 q 371 209 371 274 z"},"V":{"x_min":0,"x_max":778,"ha":778,"o":"m 2 716 l 234 716 l 395 201 l 554 716 l 778 716 l 513 0 l 273 0 z"},"\"":{"x_min":0,"x_max":500,"ha":500,"o":""},"7":{"x_min":0,"x_max":667,"ha":667,"o":"m 44 716 l 625 716 l 625 582 q 549 513 499 434 q 437 337 401 218 q 373 126 363 0 l 165 0 q 188 175 239 294 q 289 413 398 548 l 44 548 z"},"S":{"x_min":0,"x_max":722,"ha":722,"o":"m 35 237 l 245 250 q 252 199 273 172 q 307 128 371 128 q 418 128 444 151 q 469 173 469 202 q 469 230 445 252 q 420 274 332 293 q 186 326 124 380 q 62 435 62 519 q 62 574 94 623 q 125 672 190 700 q 254 728 366 728 q 503 728 575 677 q 647 626 661 515 l 452 502 q 444 551 417 573 q 391 595 344 595 q 305 595 286 578 q 266 562 266 539 q 266 521 282 508 q 298 494 356 481 q 501 450 564 418 q 627 386 656 339 q 684 292 684 233 q 684 164 646 106 q 608 48 540 18 q 471 -12 367 -12 q 185 -12 114 58 q 44 128 35 237 z"},"}":{"x_min":0,"x_max":389,"ha":389,"o":""},"Z":{"x_min":0,"x_max":722,"ha":722,"o":"m 55 716 l 681 716 l 681 573 l 280 154 l 696 154 l 696 0 l 17 0 l 17 148 l 414 563 l 55 563 z"},"x":{"x_min":0,"x_max":667,"ha":667,"o":"m 15 519 l 251 519 l 333 374 l 429 519 l 648 519 l 472 271 l 661 0 l 429 0 l 333 167 l 221 0 l 5 0 l 194 271 z"},")":{"x_min":0,"x_max":389,"ha":389,"o":""},"&":{"x_min":0,"x_max":889,"ha":889,"o":"m 638 348 l 793 313 q 781 271 770 245 q 759 219 738 184 l 813 132 q 827 124 848 111 l 741 -12 q 712 4 680 24 q 649 45 624 60 q 572 25 521 10 q 449 -12 357 -12 q 214 -12 145 48 q 75 107 75 192 q 75 253 116 308 q 157 362 250 400 q 211 447 196 482 q 182 517 182 553 q 182 629 240 679 q 298 728 416 728 q 537 728 593 681 q 650 634 650 569 q 650 532 633 499 q 615 465 591 444 q 566 423 503 381 q 556 329 612 284 q 627 314 638 348 z m 410 474 q 448 495 469 519 q 490 544 490 566 q 490 589 473 605 q 455 621 424 621 q 394 621 375 603 q 356 585 356 562 q 356 531 410 474 z m 339 300 q 298 271 284 250 q 271 230 271 207 q 271 171 302 144 q 333 116 382 116 q 435 116 501 157 q 438 206 339 300 z"},"_":{"x_min":0,"x_max":500,"ha":500,"o":"m -6 -75 l 506 -75 l 506 -125 l -6 -125 z"},"v":{"x_min":0,"x_max":611,"ha":611,"o":"m 1 519 l 208 519 l 309 190 l 413 519 l 613 519 l 393 0 l 217 0 z"},"O":{"x_min":0,"x_max":833,"ha":833,"o":"m 45 357 q 45 533 143 630 q 241 728 415 728 q 594 728 690 632 q 787 536 787 363 q 787 238 745 157 q 703 77 623 32 q 543 -12 424 -12 q 303 -12 223 26 q 144 65 95 148 q 45 232 45 357 z m 267 356 q 267 248 307 201 q 347 153 417 153 q 488 153 527 200 q 566 246 566 366 q 566 467 525 514 q 484 561 415 561 q 348 561 307 513 q 267 466 267 356 z"},"(":{"x_min":0,"x_max":389,"ha":389,"o":"m 226 728 l 350 728 q 286 586 258 466 q 234 364 234 249 q 234 25 350 -210 l 226 -210 q 131 -76 93 32 q 55 141 55 260 q 55 384 95 495 q 135 606 226 728 z"},"C":{"x_min":0,"x_max":778,"ha":778,"o":"m 550 292 l 744 234 q 724 152 682 98 q 640 43 578 15 q 516 -13 419 -13 q 303 -13 229 21 q 155 55 101 141 q 47 226 47 359 q 47 537 142 633 q 236 728 409 728 q 544 728 622 673 q 699 619 737 505 l 542 462 q 531 495 520 510 q 501 535 475 549 q 448 562 415 562 q 339 562 299 502 q 269 457 269 361 q 269 242 305 198 q 341 153 407 153 q 470 153 503 189 q 535 225 550 292 z"},"W":{"x_min":0,"x_max":1000,"ha":1000,"o":"m 0 716 l 209 716 l 285 316 l 396 716 l 605 716 l 716 316 l 792 716 l 1000 716 l 843 0 l 626 0 l 500 451 l 375 0 l 159 0 z"},"A":{"x_min":0,"x_max":778,"ha":778,"o":"m 514 118 l 262 118 l 227 0 l 1 0 l 270 716 l 511 716 l 780 0 l 549 0 z m 467 273 l 388 530 l 310 273 z"},"f":{"x_min":0,"x_max":389,"ha":389,"o":"m 281 519 l 376 519 l 376 373 l 281 373 l 281 0 l 82 0 l 82 373 l 8 373 l 8 519 l 82 519 l 82 542 q 82 574 89 612 q 96 650 115 674 q 133 698 167 713 q 201 728 267 728 q 319 728 418 716 l 396 596 q 361 602 339 602 q 312 602 300 593 q 289 583 284 564 q 281 553 281 519 z"},"Q":{"x_min":0,"x_max":833,"ha":833,"o":"m 709 104 q 750 76 763 68 q 782 58 814 43 l 753 -81 q 707 -58 661 -27 q 616 4 598 20 q 524 -12 414 -12 q 251 -12 157 73 q 45 173 45 355 q 45 532 143 630 q 240 728 415 728 q 593 728 690 632 q 787 537 787 358 q 787 200 709 104 z m 540 218 q 566 265 566 359 q 566 468 526 514 q 485 561 415 561 q 349 561 308 513 q 267 466 267 365 q 267 248 307 201 q 347 153 417 153 q 439 153 459 158 q 431 185 371 208 l 406 288 q 435 283 451 275 q 468 267 515 234 q 526 226 540 218 z"},"w":{"x_min":0,"x_max":944,"ha":944,"o":"m 1 519 l 194 519 l 277 192 l 383 519 l 562 519 l 671 192 l 755 519 l 946 519 l 755 0 l 578 0 l 473 312 l 372 0 l 194 0 z"},"-":{"x_min":0,"x_max":333,"ha":333,"o":"m 22 338 l 311 338 l 311 184 l 22 184 z"},"E":{"x_min":0,"x_max":722,"ha":722,"o":"m 73 716 l 666 716 l 666 563 l 294 563 l 294 449 l 639 449 l 639 303 l 294 303 l 294 162 l 676 162 l 676 0 l 73 0 z"},"s":{"x_min":0,"x_max":611,"ha":611,"o":"m 25 144 l 222 162 q 234 127 256 112 q 278 97 315 97 q 355 97 377 114 q 394 126 394 146 q 394 167 372 179 q 355 187 286 199 q 183 217 142 233 q 102 248 74 285 q 47 321 47 368 q 47 419 77 457 q 106 494 159 512 q 211 530 299 530 q 392 530 436 516 q 480 502 510 472 q 539 442 559 392 l 370 373 q 363 398 346 410 q 322 425 289 425 q 255 425 240 413 q 225 401 225 384 q 225 365 244 355 q 264 346 329 338 q 428 327 477 307 q 525 287 551 250 q 576 212 576 168 q 576 123 549 81 q 522 38 464 13 q 405 -12 305 -12 q 163 -12 102 28 q 42 69 25 144 z"},">":{"x_min":0,"x_max":660,"ha":660,"o":""},"l":{"x_min":0,"x_max":333,"ha":333,"o":"m 67 716 l 266 716 l 266 0 l 67 0 z"},"8":{"x_min":0,"x_max":667,"ha":667,"o":"m 161 385 q 114 410 92 440 q 63 482 63 537 q 63 627 147 684 q 213 728 322 728 q 465 728 534 673 q 603 619 603 536 q 603 487 575 445 q 555 414 511 385 q 569 357 597 311 q 626 265 626 209 q 626 156 601 109 q 577 62 541 37 q 505 12 451 0 q 398 -12 337 -12 q 224 -12 164 15 q 104 42 72 94 q 41 146 41 210 q 41 273 70 317 q 100 361 161 385 z m 250 525 q 250 488 273 466 q 296 443 335 443 q 369 443 391 465 q 413 488 413 523 q 413 561 390 584 q 367 607 332 607 q 295 607 273 584 q 250 562 250 525 z m 239 217 q 239 170 268 140 q 297 110 334 110 q 370 110 398 140 q 426 171 426 218 q 426 265 398 295 q 369 326 332 326 q 294 326 267 296 q 239 267 239 217 z"},"\\":{"x_min":0,"x_max":278,"ha":278,"o":""},"e":{"x_min":0,"x_max":667,"ha":667,"o":"m 636 210 l 237 210 q 243 162 263 139 q 292 105 338 105 q 368 105 394 120 q 410 129 429 152 l 625 134 q 580 56 516 22 q 453 -12 334 -12 q 231 -12 172 17 q 113 46 74 110 q 35 173 35 258 q 35 380 113 455 q 191 530 328 530 q 439 530 504 497 q 568 463 602 399 q 636 335 636 232 z m 434 305 q 428 363 403 388 q 377 413 336 413 q 289 413 261 375 q 243 352 238 305 z"},"b":{"x_min":0,"x_max":667,"ha":667,"o":"m 61 716 l 262 716 l 262 468 q 292 499 329 515 q 367 530 413 530 q 508 530 570 462 q 632 394 632 267 q 632 182 604 117 q 575 52 525 20 q 475 -12 414 -12 q 362 -12 318 11 q 286 28 247 77 l 247 0 l 61 0 z m 260 261 q 260 194 285 164 q 311 134 349 134 q 385 134 409 163 q 433 193 433 263 q 433 324 409 353 q 386 382 352 382 q 312 382 286 352 q 260 322 260 261 z"},"%":{"x_min":0,"x_max":1000,"ha":1000,"o":"m 656 728 l 759 728 l 346 -37 l 244 -37 z m 48 540 q 48 590 70 635 q 92 680 136 704 q 181 728 242 728 q 332 728 384 677 q 436 625 436 540 q 436 454 384 403 q 332 352 242 352 q 181 352 136 376 q 92 400 70 445 q 48 490 48 540 z m 186 539 q 186 479 205 451 q 218 433 242 433 q 267 433 279 451 q 298 479 298 539 q 298 599 279 627 q 267 645 242 645 q 218 645 205 627 q 186 600 186 539 z m 564 153 q 564 203 586 248 q 607 292 652 317 q 697 341 758 341 q 848 341 900 290 q 952 238 952 153 q 952 67 900 16 q 848 -36 758 -36 q 697 -36 652 -11 q 607 13 586 58 q 564 103 564 153 z m 702 152 q 702 91 721 64 q 733 46 758 46 q 782 46 795 64 q 814 91 814 152 q 814 212 795 240 q 782 258 758 258 q 733 258 721 240 q 702 212 702 152 z"},"m":{"x_min":0,"x_max":1000,"ha":1000,"o":"m 62 519 l 247 519 l 247 443 q 287 490 328 510 q 369 530 426 530 q 488 530 524 508 q 561 486 583 443 q 630 494 669 512 q 708 530 764 530 q 848 530 895 481 q 941 431 941 326 l 941 0 l 742 0 l 742 295 q 742 331 729 348 q 708 375 679 375 q 644 375 622 349 q 601 324 601 268 l 601 0 l 401 0 l 401 286 q 401 320 397 332 q 391 352 375 364 q 360 375 339 375 q 305 375 283 350 q 261 324 261 265 l 261 0 l 62 0 z"},"#":{"x_min":0,"x_max":660,"ha":660,"o":"m 124 295 l 149 418 l 29 418 l 29 553 l 176 553 l 210 728 l 350 728 l 314 553 l 421 553 l 456 728 l 595 728 l 561 553 l 627 553 l 627 418 l 533 418 l 508 295 l 627 295 l 627 160 l 481 160 l 447 -12 l 308 -12 l 342 160 l 235 160 l 200 -12 l 62 -12 l 98 160 l 29 160 l 29 295 z m 262 295 l 369 295 l 395 418 l 288 418 z"},",":{"x_min":0,"x_max":333,"ha":333,"o":"m 61 197 l 273 197 l 273 34 q 273 -57 235 -109 q 198 -161 107 -201 l 61 -114 q 117 -88 138 -62 q 160 -36 162 0 l 61 0 z"},"n":{"x_min":0,"x_max":667,"ha":667,"o":"m 60 519 l 245 519 l 245 434 q 287 486 329 508 q 372 530 433 530 q 515 530 562 481 q 608 432 608 330 l 608 0 l 409 0 l 409 285 q 409 334 391 354 q 373 375 340 375 q 304 375 281 347 q 259 320 259 249 l 259 0 l 60 0 z"},"h":{"x_min":0,"x_max":667,"ha":667,"o":"m 60 716 l 259 716 l 259 452 q 299 494 339 512 q 379 530 434 530 q 515 530 562 481 q 608 432 608 330 l 608 0 l 409 0 l 409 285 q 409 334 391 354 q 373 375 340 375 q 304 375 281 347 q 259 320 259 249 l 259 0 l 60 0 z"},"z":{"x_min":0,"x_max":556,"ha":556,"o":"m 38 519 l 519 519 l 519 402 l 257 136 l 535 136 l 535 0 l 18 0 l 18 129 l 266 383 l 38 383 z"},"B":{"x_min":0,"x_max":778,"ha":778,"o":"m 74 716 l 488 716 q 591 716 647 665 q 702 613 702 538 q 702 474 663 429 q 636 398 585 381 q 663 362 699 317 q 735 272 735 204 q 735 148 709 104 q 684 59 639 33 q 611 17 555 10 q 480 0 456 0 l 74 0 z m 297 435 l 393 435 q 445 435 465 453 q 485 471 485 504 q 485 536 465 553 q 445 571 395 571 l 297 571 z m 297 154 l 410 154 q 467 154 490 174 q 514 194 514 229 q 514 260 490 280 q 467 299 409 299 l 297 299 z"},"K":{"x_min":0,"x_max":833,"ha":833,"o":"m 74 716 l 295 716 l 295 445 l 527 716 l 821 716 l 561 446 l 833 0 l 561 0 l 410 294 l 295 175 l 295 0 l 74 0 z"},"R":{"x_min":0,"x_max":778,"ha":778,"o":"m 76 0 l 76 716 l 445 716 q 547 716 602 698 q 656 681 689 633 q 722 585 722 517 q 722 458 697 414 q 671 371 627 344 q 599 327 549 316 q 589 303 607 290 q 619 281 642 252 q 666 223 673 208 l 780 0 l 530 0 l 412 219 q 390 261 372 274 q 348 291 318 291 l 298 291 l 298 0 z m 298 426 l 392 426 q 407 426 450 436 q 472 440 486 458 q 500 476 500 500 q 500 534 478 553 q 456 571 396 571 l 298 571 z"},"T":{"x_min":0,"x_max":722,"ha":722,"o":"m 23 716 l 695 716 l 695 539 l 470 539 l 470 0 l 249 0 l 249 539 l 23 539 z"},"P":{"x_min":0,"x_max":722,"ha":722,"o":"m 72 716 l 440 716 q 560 716 620 659 q 680 602 680 496 q 680 388 615 327 q 549 266 416 266 l 294 266 l 294 0 l 72 0 z m 294 411 l 349 411 q 413 411 438 433 q 464 455 464 490 q 464 523 442 547 q 419 570 357 570 l 294 570 z"},"|":{"x_min":0,"x_max":278,"ha":278,"o":"m 78 716 l 203 716 l 203 -197 l 78 -197 z"},"t":{"x_min":0,"x_max":444,"ha":444,"o":"m 300 716 l 300 519 l 409 519 l 409 374 l 300 374 l 300 189 q 300 156 306 146 q 316 129 340 129 q 362 129 402 142 l 417 4 q 343 -12 279 -12 q 205 -12 169 7 q 134 26 117 65 q 101 104 101 191 l 101 374 l 27 374 l 27 519 l 101 519 l 101 614 z"},"M":{"x_min":0,"x_max":944,"ha":944,"o":"m 71 716 l 362 716 l 474 280 l 586 716 l 876 716 l 876 0 l 695 0 l 695 546 l 555 0 l 392 0 l 252 546 l 252 0 l 71 0 z"},"g":{"x_min":0,"x_max":667,"ha":667,"o":"m 421 519 l 607 519 l 607 29 l 607 6 q 607 -43 587 -87 q 566 -131 531 -159 q 497 -186 444 -198 q 391 -210 323 -210 q 167 -210 108 -164 q 50 -117 50 -38 q 50 -28 51 -12 l 244 -34 q 251 -61 266 -71 q 288 -86 321 -86 q 364 -86 385 -63 q 407 -40 407 17 l 407 96 q 377 61 348 45 q 302 21 249 21 q 145 21 81 112 q 36 176 36 282 q 36 403 94 467 q 153 530 248 530 q 308 530 347 510 q 387 489 421 442 z m 234 267 q 234 211 258 184 q 282 157 321 157 q 358 157 383 185 q 408 213 408 270 q 408 326 382 356 q 355 386 317 386 q 279 386 257 359 q 234 331 234 267 z"},"j":{"x_min":0,"x_max":333,"ha":333,"o":"m 68 716 l 267 716 l 267 579 l 68 579 z m 68 519 l 267 519 l 267 16 q 267 -81 253 -121 q 239 -161 202 -186 q 164 -210 94 -210 q 37 -210 -49 -193 l -19 -49 q 5 -54 16 -54 q 42 -54 55 -36 q 68 -19 68 33 z"},"i":{"x_min":0,"x_max":333,"ha":333,"o":"m 67 716 l 266 716 l 266 581 l 67 581 z m 67 519 l 266 519 l 266 0 l 67 0 z"},"y":{"x_min":0,"x_max":611,"ha":611,"o":"m 2 519 l 212 519 l 319 173 l 418 519 l 614 519 l 409 -36 q 374 -130 337 -164 q 285 -210 179 -210 q 136 -210 46 -199 l 31 -60 q 74 -74 126 -74 q 162 -74 183 -58 q 205 -42 220 0 z"},"@":{"x_min":0,"x_max":740,"ha":740,"o":"m 564 561 l 503 174 q 501 163 501 157 q 501 148 506 144 q 511 139 521 139 q 543 139 572 159 q 614 188 641 243 q 668 299 668 377 q 668 506 594 581 q 520 656 396 656 q 304 656 228 612 q 153 568 112 484 q 71 401 71 300 q 71 143 160 51 q 249 -42 389 -42 q 457 -42 520 -19 q 583 4 642 50 l 742 50 q 702 2 666 -24 q 612 -64 542 -89 q 472 -114 391 -114 q 278 -114 188 -62 q 98 -9 48 87 q -3 184 -3 300 q -3 422 50 522 q 102 622 189 675 q 276 729 395 729 q 549 729 645 631 q 742 533 742 378 q 742 287 704 210 q 667 134 594 90 q 538 56 488 56 q 459 56 440 69 q 422 83 413 113 q 380 81 354 68 q 327 55 295 55 q 230 55 184 109 q 137 164 137 265 q 137 384 197 481 q 257 578 346 578 q 380 578 407 562 q 434 545 460 505 l 469 561 z m 239 241 q 239 183 264 150 q 283 126 312 126 q 343 126 368 153 q 394 180 413 259 q 432 339 432 402 q 432 450 411 475 q 391 499 362 499 q 330 499 306 475 q 273 442 256 371 q 239 300 239 241 z"},".":{"x_min":0,"x_max":333,"ha":333,"o":"m 61 199 l 273 199 l 273 0 l 61 0 z"},"p":{"x_min":0,"x_max":667,"ha":667,"o":"m 61 -197 l 61 519 l 247 519 l 247 442 q 286 490 318 507 q 361 530 414 530 q 518 530 575 451 q 632 371 632 254 q 632 125 570 56 q 508 -12 413 -12 q 367 -12 329 4 q 292 20 262 50 l 262 -197 z m 260 258 q 260 196 286 167 q 312 137 352 137 q 386 137 410 165 q 433 194 433 262 q 433 325 409 355 q 384 384 349 384 q 311 384 286 354 q 260 325 260 258 z"},"X":{"x_min":0,"x_max":778,"ha":778,"o":"m 24 716 l 268 716 l 395 496 l 518 716 l 759 716 l 536 369 l 780 0 l 531 0 l 390 230 l 249 0 l 1 0 l 249 373 z"},"*":{"x_min":0,"x_max":556,"ha":556,"o":"m 221 728 l 329 728 l 320 654 q 317 627 308 593 q 327 603 333 606 q 353 617 364 622 l 432 654 l 465 551 l 390 536 q 370 532 329 530 q 356 509 373 491 l 423 436 l 335 370 l 299 436 q 292 450 274 491 q 255 446 249 436 l 212 370 l 122 436 l 176 491 q 199 514 221 530 q 199 532 162 539 l 86 551 l 122 654 l 189 624 q 200 619 243 593 q 233 634 231 654 z"},"Y":{"x_min":0,"x_max":778,"ha":778,"o":"m 1 716 l 247 716 l 391 474 l 536 716 l 780 716 l 501 300 l 501 0 l 280 0 l 280 300 z"},"c":{"x_min":0,"x_max":667,"ha":667,"o":"m 447 203 l 636 181 q 620 122 584 79 q 549 36 493 12 q 438 -12 353 -12 q 270 -12 215 3 q 160 19 121 53 q 81 87 59 134 q 36 180 36 257 q 36 337 63 390 q 83 429 118 460 q 153 491 189 506 q 248 530 338 530 q 465 530 532 485 q 599 439 625 352 l 438 327 q 430 360 406 377 q 383 394 344 394 q 295 394 264 359 q 234 323 234 251 q 234 188 264 154 q 294 121 341 121 q 380 121 407 141 q 434 161 447 203 z"},"!":{"x_min":0,"x_max":333,"ha":333,"o":"m 61 716 l 273 716 l 273 553 l 232 225 l 101 225 l 61 553 z m 68 175 l 266 175 l 266 0 l 68 0 z"},"/":{"x_min":0,"x_max":278,"ha":278,"o":"m 179 728 l 281 728 l 101 -12 l 0 -12 z"},"[":{"x_min":0,"x_max":389,"ha":389,"o":"m 66 716 l 366 716 l 366 562 l 248 562 l 248 -44 l 366 -44 l 366 -199 l 66 -199 z"},"6":{"x_min":0,"x_max":667,"ha":667,"o":"m 617 555 l 419 530 q 411 572 393 589 q 375 606 348 606 q 299 606 272 557 q 253 522 244 407 q 279 443 317 460 q 354 478 404 478 q 500 478 566 409 q 632 341 632 236 q 632 165 598 106 q 565 48 506 18 q 446 -12 357 -12 q 250 -12 185 24 q 120 61 81 141 q 42 222 42 354 q 42 548 124 638 q 205 728 350 728 q 435 728 485 708 q 534 688 567 650 q 600 612 617 555 z m 250 236 q 250 178 280 145 q 309 112 352 112 q 391 112 417 142 q 443 171 443 230 q 443 291 416 323 q 389 354 348 354 q 307 354 279 324 q 250 293 250 236 z"},"r":{"x_min":0,"x_max":444,"ha":444,"o":"m 62 519 l 248 519 l 248 434 q 275 489 303 510 q 332 530 374 530 q 418 530 470 503 l 409 361 q 374 376 353 376 q 314 376 292 344 q 262 298 262 174 l 262 0 l 62 0 z"},"2":{"x_min":0,"x_max":667,"ha":667,"o":"m 623 0 l 26 0 q 37 88 89 166 q 141 244 284 350 q 371 415 396 449 q 420 482 420 513 q 420 545 396 569 q 372 592 335 592 q 297 592 273 568 q 249 544 240 483 l 41 500 q 53 583 84 631 q 115 678 172 703 q 229 728 330 728 q 435 728 493 704 q 551 680 585 631 q 618 581 618 520 q 618 454 580 395 q 542 335 440 264 q 380 222 360 206 q 340 189 312 162 l 623 162 z"},"{":{"x_min":0,"x_max":389,"ha":389,"o":"m 378 728 l 378 568 l 356 568 q 325 568 310 555 q 294 542 288 515 q 285 500 284 435 q 284 369 271 332 q 261 303 243 285 q 229 272 198 258 q 230 243 246 227 q 262 210 273 177 q 285 144 285 70 q 285 4 292 -16 q 298 -36 314 -44 q 330 -52 378 -52 l 378 -210 l 316 -210 q 221 -210 181 -190 q 141 -169 124 -129 q 107 -89 107 -10 q 107 8 108 25 q 108 36 108 47 q 108 104 98 128 q 88 152 69 163 q 49 173 13 174 l 13 342 q 50 342 69 354 q 88 365 98 389 q 107 414 107 471 l 107 488 q 107 499 107 510 q 107 597 121 635 q 136 674 161 694 q 180 710 213 718 q 256 728 312 728 z"},"9":{"x_min":0,"x_max":667,"ha":667,"o":"m 50 161 l 248 186 q 255 144 274 127 q 292 110 319 110 q 367 110 394 158 q 414 194 423 309 q 388 272 350 255 q 312 238 263 238 q 167 238 101 307 q 35 375 35 479 q 35 551 68 609 q 102 668 161 698 q 220 728 310 728 q 417 728 482 691 q 547 654 586 574 q 625 494 625 362 q 625 168 543 78 q 461 -12 317 -12 q 231 -12 182 8 q 133 27 100 65 q 67 104 50 161 z m 416 480 q 416 538 387 571 q 357 604 315 604 q 276 604 250 574 q 224 544 224 485 q 224 425 251 393 q 278 361 318 361 q 360 361 388 392 q 416 423 416 480 z"}," ":{"x_min":0,"x_max":333,"ha":333,"o":""},"I":{"x_min":0,"x_max":389,"ha":389,"o":"m 82 716 l 304 716 l 304 0 l 82 0 z"},"H":{"x_min":0,"x_max":833,"ha":833,"o":"m 74 716 l 295 716 l 295 465 l 537 465 l 537 716 l 759 716 l 759 0 l 537 0 l 537 290 l 295 290 l 295 0 l 74 0 z"},"4":{"x_min":0,"x_max":667,"ha":667,"o":"m 383 134 l 21 134 l 21 297 l 383 728 l 556 728 l 556 288 l 646 288 l 646 134 l 556 134 l 556 0 l 383 0 z m 383 288 l 383 513 l 191 288 z"},"~":{"x_min":0,"x_max":660,"ha":660,"o":"m 608 475 l 608 315 q 552 271 518 255 q 483 240 446 240 q 417 240 389 249 q 360 257 300 288 q 239 318 204 318 q 128 318 48 240 l 48 401 q 94 441 133 458 q 173 476 220 476 q 244 476 270 468 q 296 460 347 436 q 398 411 420 404 q 441 398 460 398 q 526 398 608 475 z"},"D":{"x_min":0,"x_max":778,"ha":778,"o":"m 76 716 l 405 716 q 502 716 562 689 q 622 663 661 614 q 700 564 717 499 q 735 434 735 360 q 735 246 709 182 q 683 119 636 76 q 590 34 537 20 q 464 0 405 0 l 76 0 z m 297 554 l 297 163 l 352 163 q 421 163 450 178 q 479 193 496 232 q 513 270 513 356 q 513 470 476 512 q 438 554 353 554 z"},"^":{"x_min":0,"x_max":660,"ha":660,"o":"m 260 728 l 396 728 l 596 331 l 423 331 l 329 571 l 234 331 l 61 331 z"},"0":{"x_min":0,"x_max":667,"ha":667,"o":"m 41 361 q 41 565 115 646 q 188 728 338 728 q 411 728 457 710 q 503 692 533 664 q 562 635 579 604 q 596 572 606 530 q 626 450 626 363 q 626 168 560 78 q 494 -12 333 -12 q 243 -12 187 17 q 131 45 96 101 q 70 141 55 209 q 41 278 41 361 z m 238 360 q 238 224 262 174 q 287 124 333 124 q 363 124 385 145 q 407 166 418 212 q 428 258 428 355 q 428 498 404 547 q 380 596 332 596 q 282 596 260 546 q 238 496 238 360 z"},"F":{"x_min":0,"x_max":667,"ha":667,"o":"m 74 716 l 621 716 l 621 562 l 296 562 l 296 437 l 574 437 l 574 292 l 296 292 l 296 0 l 74 0 z"},"`":{"x_min":0,"x_max":333,"ha":333,"o":"m 0 728 l 170 728 l 250 583 l 156 583 z"},"k":{"x_min":0,"x_max":667,"ha":667,"o":"m 60 716 l 263 716 l 263 347 l 412 519 l 656 519 l 470 337 l 667 0 l 443 0 l 338 208 l 263 135 l 263 0 l 60 0 z"},"u":{"x_min":0,"x_max":667,"ha":667,"o":"m 606 0 l 421 0 l 421 84 q 379 32 337 10 q 295 -12 233 -12 q 151 -12 105 37 q 58 86 58 188 l 58 519 l 258 519 l 258 233 q 258 185 276 164 q 294 144 327 144 q 362 144 385 171 q 408 198 408 269 l 408 519 l 606 519 z"},"]":{"x_min":0,"x_max":389,"ha":389,"o":""},"U":{"x_min":0,"x_max":833,"ha":833,"o":"m 539 716 l 760 716 l 760 289 q 760 226 740 169 q 720 113 678 71 q 636 28 589 11 q 525 -13 435 -13 q 382 -13 321 -5 q 259 2 217 24 q 176 45 141 85 q 107 125 94 168 q 74 236 74 289 l 74 716 l 294 716 l 294 279 q 294 220 327 187 q 359 154 417 154 q 474 154 507 187 q 539 219 539 279 z"},"o":{"x_min":0,"x_max":667,"ha":667,"o":"m 36 258 q 36 376 116 453 q 196 530 332 530 q 488 530 567 440 q 631 367 631 261 q 631 141 552 65 q 473 -12 333 -12 q 208 -12 130 52 q 36 130 36 258 z m 235 258 q 235 189 263 156 q 291 123 333 123 q 376 123 404 155 q 432 188 432 260 q 432 328 404 361 q 376 394 335 394 q 292 394 263 360 q 235 327 235 258 z"},"N":{"x_min":0,"x_max":833,"ha":833,"o":"m 75 716 l 281 716 l 551 320 l 551 716 l 759 716 l 759 0 l 551 0 l 283 393 l 283 0 l 75 0 z"},"+":{"x_min":0,"x_max":660,"ha":660,"o":"m 62 437 l 249 437 l 249 625 l 407 625 l 407 437 l 595 437 l 595 278 l 407 278 l 407 91 l 249 91 l 249 278 l 62 278 z"},"G":{"x_min":0,"x_max":833,"ha":833,"o":"m 433 259 l 433 408 l 775 408 l 775 103 q 677 36 601 12 q 526 -12 422 -12 q 295 -12 215 31 q 134 75 90 161 q 46 247 46 358 q 46 475 94 562 q 143 648 236 693 q 309 728 432 728 q 550 728 609 707 q 668 685 707 640 q 746 595 765 525 l 552 487 q 539 528 507 549 q 476 571 427 571 q 354 571 311 520 q 268 470 268 360 q 268 244 311 194 q 355 145 433 145 q 470 145 504 155 q 538 166 581 192 l 581 259 z"},"q":{"x_min":0,"x_max":667,"ha":667,"o":"m 606 -197 l 405 -197 l 405 50 q 376 20 338 4 q 300 -12 254 -12 q 159 -12 97 56 q 35 125 35 251 q 35 336 63 401 q 92 466 142 498 q 192 530 253 530 q 305 530 349 507 q 381 490 420 442 l 420 519 l 606 519 z m 407 258 q 407 325 382 354 q 356 384 318 384 q 282 384 258 355 q 234 325 234 256 q 234 194 258 165 q 281 137 315 137 q 355 137 381 167 q 407 196 407 258 z"},"d":{"x_min":0,"x_max":667,"ha":667,"o":"m 606 716 l 606 0 l 420 0 l 420 77 q 381 28 349 11 q 306 -12 253 -12 q 147 -12 91 69 q 35 149 35 265 q 35 394 97 462 q 159 530 254 530 q 300 530 338 515 q 376 499 405 468 l 405 716 z m 407 261 q 407 322 381 352 q 355 382 315 382 q 281 382 257 353 q 234 324 234 256 q 234 193 258 163 q 282 134 318 134 q 356 134 381 164 q 407 193 407 261 z"},"1":{"x_min":0,"x_max":667,"ha":667,"o":"m 492 728 l 492 0 l 291 0 l 291 477 q 242 440 196 417 q 150 394 82 373 l 82 536 q 183 569 239 615 q 295 661 327 728 z"},"5":{"x_min":0,"x_max":667,"ha":667,"o":"m 122 716 l 594 716 l 594 557 l 274 557 l 257 450 q 290 465 323 473 q 355 481 387 481 q 494 481 561 416 q 628 351 628 252 q 628 183 594 119 q 559 55 496 21 q 433 -12 334 -12 q 263 -12 213 1 q 162 15 127 41 q 91 68 69 102 q 47 135 33 186 l 234 208 q 241 159 268 134 q 295 109 332 109 q 374 109 401 140 q 428 172 428 234 q 428 298 400 328 q 373 358 328 358 q 299 358 272 344 q 252 333 228 307 l 59 331 z"}}}
